Coordinates
version=1
nRows=31
nColumns=34
inDegrees=no

Units are S.I. units (second, meters, Newtons, ...)
If the header above contains a line with 'inDegrees', this indicates whether rotational values are in degrees (yes) or radians (no).

endheader
time	pelvis_tilt	pelvis_list	pelvis_rotation	pelvis_tx	pelvis_ty	pelvis_tz	hip_flexion_r	hip_adduction_r	hip_rotation_r	knee_angle_r	ankle_angle_r	subtalar_angle_r	mtp_angle_r	hip_flexion_l	hip_adduction_l	hip_rotation_l	knee_angle_l	ankle_angle_l	subtalar_angle_l	mtp_angle_l	lumbar_extension	lumbar_bending	lumbar_rotation	arm_flex_r	arm_add_r	arm_rot_r	elbow_flex_r	pro_sup_r	arm_flex_l	arm_add_l	arm_rot_l	elbow_flex_l	pro_sup_l
0.62	-0.31034	-0.0576438	0.0554512	-0.90628	1.22589	-0.598373	0.635893	-0.0378831	-0.0403204	1.12023	0.35466	-0.286656	-0.129736	0.617899	-0.116005	0.00940162	1.10841	0.492907	0.0178041	-0.129736	-0.202359	0.0891338	-0.0135153	-0.197885	-0.423828	-0.0668822	1.03051	1.84707	-0.186205	-0.432051	0.0715308	1.23982	1.77107
0.63	-0.302318	-0.0547202	0.0528066	-0.893452	1.23789	-0.599495	0.597457	-0.0407794	-0.0493931	1.07859	0.331186	-0.247506	-0.129736	0.579595	-0.116719	-0.00757206	1.06908	0.457304	0.0499052	-0.129736	-0.190637	0.0900605	-0.0143473	-0.224004	-0.427994	-0.0741054	1.04214	1.87222	-0.219199	-0.436405	0.0694592	1.25483	1.7869
0.64	-0.28993	-0.0516742	0.0500295	-0.879813	1.25189	-0.600637	0.552931	-0.0441409	-0.0594005	1.03262	0.29796	-0.205174	-0.129736	0.535196	-0.118204	-0.0263901	1.02557	0.412239	0.0853695	-0.129736	-0.18377	0.0909536	-0.0145964	-0.248837	-0.430127	-0.0824639	1.04261	1.95022	-0.25192	-0.438956	0.0647776	1.26752	1.80831
0.65	-0.273145	-0.0491617	0.0473982	-0.865557	1.26775	-0.601703	0.502627	-0.0472181	-0.0706848	0.982401	0.254079	-0.160478	-0.129736	0.485175	-0.121196	-0.0471754	0.978085	0.35815	0.123649	-0.129736	-0.182395	0.0923448	-0.0145071	-0.272455	-0.430398	-0.094493	1.0343	2.08353	-0.283803	-0.43974	0.0573083	1.28073	1.81819
0.66	-0.253639	-0.0466274	0.0447193	-0.850909	1.28505	-0.602777	0.44913	-0.0505461	-0.0820016	0.929036	0.198706	-0.115718	-0.129736	0.431492	-0.124595	-0.070303	0.926831	0.294252	0.162966	-0.129736	-0.184877	0.0933766	-0.0143095	-0.296096	-0.430053	-0.0990144	1.03801	2.09	-0.315138	-0.43863	0.0469292	1.29258	1.82838
0.67	-0.232647	-0.0432485	0.0414039	-0.836042	1.30337	-0.603923	0.394709	-0.0548929	-0.0920305	0.873704	0.130308	-0.0747735	-0.129736	0.375462	-0.126832	-0.0960644	0.871853	0.219314	0.200345	-0.129736	-0.189827	0.0932528	-0.0133268	-0.320341	-0.429025	-0.10652	1.04509	2.09	-0.345915	-0.436529	0.0367418	1.30349	1.83464
0.68	-0.211305	-0.0389209	0.0376082	-0.82113	1.32235	-0.60503	0.34141	-0.0602466	-0.100761	0.817185	0.0474777	-0.041483	-0.129736	0.319102	-0.127121	-0.1234	0.813878	0.132511	0.230983	-0.129736	-0.195976	0.0915448	-0.0116251	-0.34454	-0.427375	-0.114641	1.05203	2.09	-0.376102	-0.43493	0.0278253	1.31316	1.8421
0.69	-0.191061	-0.0336141	0.0346095	-0.806381	1.34158	-0.60601	0.291368	-0.066599	-0.108773	0.760382	-0.0481772	-0.0179319	-0.129736	0.265567	-0.124717	-0.149221	0.754566	0.0347518	0.249798	-0.129736	-0.201967	0.0878218	-0.0109884	-0.367385	-0.42485	-0.120468	1.0562	2.09	-0.405987	-0.434673	0.0192445	1.32289	1.8464
0.7	-0.172379	-0.0275727	0.0333893	-0.792004	1.36073	-0.60696	0.245355	-0.0735481	-0.115936	0.704009	-0.153219	-0.00499672	-0.129736	0.216686	-0.119378	-0.169767	0.69559	-0.0713544	0.255046	-0.129736	-0.207823	0.0824937	-0.0130855	-0.387986	-0.421907	-0.123904	1.05838	2.09	-0.435879	-0.435123	0.00916084	1.33326	1.84631
0.71	-0.154304	-0.0220017	0.0335493	-0.778136	1.37957	-0.608012	0.202285	-0.0793752	-0.121145	0.647803	-0.267158	-0.00336394	-0.129736	0.171857	-0.112476	-0.183385	0.637699	-0.184246	0.248354	-0.129736	-0.215142	0.0774614	-0.0171766	-0.406744	-0.419529	-0.126823	1.06116	2.09	-0.465232	-0.435301	-0.00237816	1.34446	1.84052
0.72	-0.136432	-0.017972	0.034228	-0.764825	1.39784	-0.609157	0.161534	-0.0825549	-0.123194	0.591365	-0.39105	-0.0126353	-0.129736	0.130655	-0.105661	-0.191121	0.58125	-0.303532	0.230106	-0.129736	-0.224633	0.0742565	-0.0212447	-0.425017	-0.417935	-0.131062	1.06627	2.09	-0.493056	-0.435264	-0.0129519	1.35874	1.81233
0.73	-0.120404	-0.0151649	0.0351942	-0.752139	1.41507	-0.610308	0.125359	-0.083634	-0.121913	0.536976	-0.517982	-0.0292525	-0.129736	0.0954722	-0.0992225	-0.194872	0.528693	-0.424663	0.197975	-0.129736	-0.234568	0.0723192	-0.0246239	-0.443625	-0.41673	-0.136441	1.07362	2.09	-0.519181	-0.435012	-0.0255709	1.36905	1.81215
0.74	-0.109107	-0.013092	0.0366705	-0.740261	1.43071	-0.6114	0.0986409	-0.0837139	-0.118084	0.490755	-0.627339	-0.0458197	-0.129736	0.0713529	-0.0935115	-0.196102	0.486406	-0.535264	0.15322	-0.129736	-0.241802	0.0707971	-0.0275774	-0.462762	-0.415591	-0.142451	1.08253	2.09	-0.544227	-0.435149	-0.0384297	1.38062	1.80851
0.75	-0.10497	-0.0127338	0.0389059	-0.729408	1.4444	-0.61239	0.0859549	-0.0819689	-0.111897	0.458581	-0.693748	-0.0538484	-0.129736	0.0632309	-0.090502	-0.194968	0.461413	-0.617915	0.105835	-0.129736	-0.243629	0.0705601	-0.0302117	-0.482157	-0.414324	-0.149515	1.0921	2.09	-0.568361	-0.435809	-0.0514525	1.39286	1.80424
0.76	-0.108498	-0.0151305	0.0419024	-0.719633	1.45614	-0.613225	0.0883412	-0.0770927	-0.102649	0.441206	-0.704859	-0.0483916	-0.129736	0.0720149	-0.0915832	-0.189834	0.454928	-0.658106	0.0689294	-0.129736	-0.239416	0.0727242	-0.0323065	-0.501395	-0.412563	-0.15769	1.10125	2.09	-0.591181	-0.437387	-0.062971	1.40641	1.78818
0.77	-0.117605	-0.0197778	0.0449631	-0.710727	1.46625	-0.613853	0.102424	-0.069442	-0.090348	0.434437	-0.673222	-0.0327898	-0.129736	0.0930438	-0.0957238	-0.179888	0.46094	-0.654849	0.0496646	-0.129736	-0.231304	0.0767216	-0.0334967	-0.519971	-0.410322	-0.165631	1.10919	2.09	-0.612345	-0.439638	-0.0740326	1.41704	1.7827
0.78	-0.128817	-0.025143	0.0472013	-0.702334	1.47516	-0.614306	0.122737	-0.0607345	-0.0770662	0.432973	-0.6295	-0.017662	-0.129736	0.119095	-0.100478	-0.166829	0.470884	-0.625436	0.0467451	-0.129736	-0.222773	0.0810639	-0.0332168	-0.53791	-0.407859	-0.173986	1.11612	2.09	-0.63159	-0.442092	-0.0849146	1.42417	1.78779
0.79	-0.139856	-0.0298357	0.048456	-0.694174	1.48319	-0.61473	0.145337	-0.052826	-0.0659472	0.433248	-0.598778	-0.0096009	-0.129736	0.145239	-0.103767	-0.152928	0.47856	-0.594444	0.0544654	-0.129736	-0.215907	0.0846483	-0.0312459	-0.555648	-0.404992	-0.185462	1.12257	2.09	-0.64857	-0.444767	-0.09391	1.43152	1.77481
0.8	-0.150321	-0.0333639	0.049232	-0.686133	1.49039	-0.615203	0.168494	-0.0465813	-0.0589039	0.433035	-0.586615	-0.00516449	-0.129736	0.170033	-0.105148	-0.139438	0.481244	-0.577053	0.0675078	-0.129736	-0.210904	0.0870582	-0.0283222	-0.57276	-0.40147	-0.198904	1.1279	2.09	-0.663356	-0.44747	-0.102966	1.43383	1.77707
0.81	-0.160253	-0.0363252	0.0501541	-0.678228	1.49678	-0.615615	0.190975	-0.0413551	-0.0559885	0.430341	-0.586776	0.00116442	-0.129736	0.193366	-0.105922	-0.126997	0.478387	-0.574078	0.0832673	-0.129736	-0.207704	0.0887306	-0.0255037	-0.588109	-0.39748	-0.208497	1.13201	2.07547	-0.676717	-0.450329	-0.111786	1.43402	1.77825
0.82	-0.169429	-0.0394777	0.0515737	-0.670499	1.50241	-0.61591	0.211621	-0.0364086	-0.0568429	0.423854	-0.592063	0.0118027	-0.129736	0.21494	-0.107256	-0.116196	0.470217	-0.578415	0.10055	-0.129736	-0.206521	0.0904521	-0.0232717	-0.601165	-0.393268	-0.214376	1.13236	2.07084	-0.688874	-0.453007	-0.120833	1.43368	1.77345
0.83	-0.177746	-0.042828	0.0532247	-0.662896	1.50726	-0.61625	0.230055	-0.0321909	-0.0615609	0.41358	-0.596738	0.0287178	-0.129736	0.234177	-0.108995	-0.10799	0.457027	-0.581816	0.117966	-0.129736	-0.207201	0.0926099	-0.0209515	-0.612894	-0.388973	-0.21981	1.12979	2.07451	-0.699112	-0.45503	-0.129775	1.43363	1.76008
0.84	-0.185291	-0.0461219	0.0544751	-0.655305	1.51126	-0.616771	0.246593	-0.0292167	-0.0698742	0.400405	-0.596798	0.0527666	-0.129736	0.250693	-0.110898	-0.103622	0.43944	-0.57819	0.134566	-0.129736	-0.209332	0.0952449	-0.0176398	-0.624369	-0.384784	-0.226998	1.12723	2.07319	-0.70695	-0.456188	-0.138141	1.4323	1.74357
0.85	-0.192251	-0.0495188	0.0551467	-0.647709	1.51433	-0.617378	0.261875	-0.0269553	-0.0804484	0.385427	-0.591012	0.0812948	-0.129736	0.265027	-0.113452	-0.103451	0.41891	-0.564921	0.150267	-0.129736	-0.212592	0.0983759	-0.013481	-0.635543	-0.380972	-0.235013	1.12735	2.05411	-0.712992	-0.456862	-0.145785	1.42749	1.73155
0.86	-0.198918	-0.0533827	0.0555256	-0.640179	1.51643	-0.617924	0.276584	-0.0244897	-0.0915457	0.369524	-0.580299	0.110342	-0.129736	0.278385	-0.117077	-0.106531	0.397226	-0.542344	0.164888	-0.129736	-0.21664	0.102024	-0.0093529	-0.645894	-0.378079	-0.238452	1.13366	1.97697	-0.718385	-0.457604	-0.152421	1.42003	1.7218
0.87	-0.205582	-0.0577664	0.0556681	-0.632706	1.51754	-0.618401	0.291191	-0.021468	-0.102227	0.353196	-0.566363	0.137259	-0.129736	0.291549	-0.121542	-0.111626	0.375405	-0.512434	0.178168	-0.129736	-0.220937	0.106238	-0.00551995	-0.655035	-0.375762	-0.244619	1.13176	1.96635	-0.723601	-0.458414	-0.158307	1.40957	1.72539
0.88	-0.212499	-0.0623553	0.0554208	-0.625181	1.51766	-0.618891	0.306028	-0.0181508	-0.112565	0.336677	-0.551286	0.160216	-0.129736	0.304666	-0.126219	-0.117594	0.353492	-0.478309	0.190159	-0.129736	-0.224884	0.110779	-0.00179731	-0.663522	-0.374305	-0.24858	1.12628	1.96667	-0.728835	-0.458885	-0.163165	1.39901	1.72846
0.89	-0.219847	-0.0667254	0.0551355	-0.617565	1.51678	-0.619477	0.321376	-0.0151324	-0.123078	0.320088	-0.537282	0.177577	-0.129736	0.317851	-0.130345	-0.122787	0.331217	-0.443885	0.200039	-0.129736	-0.228073	0.115311	0.00149945	-0.67159	-0.373414	-0.251496	1.11852	1.97456	-0.734018	-0.458551	-0.168274	1.38667	1.74076
0.9	-0.227666	-0.0707216	0.0555915	-0.60994	1.51488	-0.620206	0.337329	-0.0128851	-0.134296	0.303501	-0.52582	0.188637	-0.129736	0.331421	-0.133408	-0.125602	0.3085	-0.413104	0.205716	-0.129736	-0.230392	0.119697	0.00348574	-0.679175	-0.373105	-0.252948	1.11098	1.9751	-0.739347	-0.457628	-0.173149	1.37531	1.74412
0.91	-0.235814	-0.0744462	0.0568333	-0.602364	1.51196	-0.621004	0.353672	-0.0112772	-0.145909	0.286906	-0.516914	0.193755	-0.129736	0.345543	-0.135652	-0.126602	0.285608	-0.389592	0.206268	-0.129736	-0.232016	0.123915	0.00406999	-0.686172	-0.373386	-0.253338	1.1028	1.97834	-0.745002	-0.456646	-0.17731	1.36499	1.73906
0.92	-0.243976	-0.0778537	0.0578447	-0.594797	1.50805	-0.621702	0.370011	-0.00981372	-0.156417	0.27028	-0.509449	0.193239	-0.129736	0.359927	-0.137769	-0.128417	0.262948	-0.376354	0.202861	-0.129736	-0.233411	0.127624	0.0044505	-0.692724	-0.373975	-0.252307	1.09409	1.98125	-0.751021	-0.45603	-0.180979	1.35288	1.74478
